<svg xmlns="http://www.w3.org/2000/svg" width="2000" height="1370" viewBox="0 0 2000 1370" font-family="ui-monospace, Consolas, Menlo, monospace">
<rect width="2000" height="1370" fill="#0b0d10"/>
<text x="40" y="60" fill="#c9d1d9" font-size="22" font-weight="700">JEZERO OPS · DECISION GRAPH III — WHERE A FAST CALIBRATED JUDGE IS USED ON THE ROVER</text>
<text x="40" y="86" fill="#7f8b98" font-size="13">fourteen uses of jev in the ROS 2 graph · every one is a closed question over words that code made from numbers · every answer is consumed by a rule that names its flight rule</text>
<text x="40" y="126" fill="#7f8b98" font-size="11" letter-spacing="2">STREAM (what code turns into words)</text>
<text x="520" y="126" fill="#d9a441" font-size="11" letter-spacing="2">JEV · TYPED QUESTIONS</text>
<text x="1000" y="126" fill="#5aa7e6" font-size="11" letter-spacing="2">CADENCE</text>
<text x="1500" y="126" fill="#4fd18b" font-size="11" letter-spacing="2">RULE THAT CONSUMES THE ANSWER</text>
<rect x="40" y="150" width="440" height="72" rx="8" fill="#0f1317" stroke="#3a4450" stroke-width="1.2"/>
<text x="52" y="172" fill="#c9d1d9" font-size="13" font-weight="600">1. whole-rig sweep (all four camera pairs)</text>
<text x="52" y="188" fill="#7f8b98" font-size="11">every pair images at once: Navcam out to 13 m, front + backup</text>
<text x="52" y="201" fill="#7f8b98" font-size="11">front + rear Hazcams 0.3–4 m beyond the wheel line; each feature</text>
<text x="52" y="214" fill="#7f8b98" font-size="11">carries the pair that measured it</text>
<rect x="520" y="150" width="440" height="72" rx="8" fill="#12181f" stroke="#d9a441" stroke-width="1.5"/>
<text x="532" y="172" fill="#d9a441" font-size="12">type (Choice ×6) · wheel hazard · sinkage · science (Noul),</text>
<text x="532" y="186" fill="#c9b98a" font-size="12">per feature, every pair in ONE request</text>
<rect x="1000" y="150" width="460" height="72" rx="8" fill="#0f1317" stroke="#5aa7e6" stroke-width="1.2"/>
<text x="1012" y="174" fill="#5aa7e6" font-size="12">before every wheel commit + mid-arc</text>
<rect x="1500" y="150" width="460" height="72" rx="8" fill="#12181f" stroke="#4fd18b" stroke-width="1.5"/>
<text x="1512" y="171" fill="#4fd18b" font-size="11.5">any one pair may veto → perception map / keep-out; ENav re-plans</text>
<text x="1512" y="184" fill="#9fd9b6" font-size="11.5">before a wheel turns · conf &lt; 0.55 → mast up, re-image</text>
<text x="1512" y="197" fill="#9fd9b6" font-size="11.5">[FR-04/06/08]</text>
<path d="M480,183 L520,183" stroke="#3a4450" stroke-width="1.2"/>
<path d="M960,183 L1000,183" stroke="#3a4450" stroke-width="1.2"/>
<path d="M1460,183 L1500,183" stroke="#3a4450" stroke-width="1.2"/>
<rect x="40" y="230" width="440" height="72" rx="8" fill="#0f1317" stroke="#3a4450" stroke-width="1.2"/>
<text x="52" y="252" fill="#c9d1d9" font-size="13" font-weight="600">2. Navcam pair (planning horizon)</text>
<text x="52" y="268" fill="#7f8b98" font-size="11">features: appearance, size, position, stereo note</text>
<rect x="520" y="230" width="440" height="72" rx="8" fill="#12181f" stroke="#d9a441" stroke-width="1.5"/>
<text x="532" y="252" fill="#d9a441" font-size="12">type (Choice ×6) · wheel hazard · sinkage · science (Noul)</text>
<rect x="1000" y="230" width="460" height="72" rx="8" fill="#0f1317" stroke="#5aa7e6" stroke-width="1.2"/>
<text x="1012" y="254" fill="#5aa7e6" font-size="12">every 6 m · 1 request</text>
<rect x="1500" y="230" width="460" height="72" rx="8" fill="#12181f" stroke="#4fd18b" stroke-width="1.5"/>
<text x="1512" y="251" fill="#4fd18b" font-size="11.5">perception map · 6 m keep-out · opportunistic science [FR-04/05]</text>
<path d="M480,263 L520,263" stroke="#3a4450" stroke-width="1.2"/>
<path d="M960,263 L1000,263" stroke="#3a4450" stroke-width="1.2"/>
<path d="M1460,263 L1500,263" stroke="#3a4450" stroke-width="1.2"/>
<rect x="40" y="310" width="440" height="72" rx="8" fill="#0f1317" stroke="#3a4450" stroke-width="1.2"/>
<text x="52" y="332" fill="#c9d1d9" font-size="13" font-weight="600">3. ground ahead</text>
<text x="52" y="348" fill="#7f8b98" font-size="11">corridor description: pavement, rocks, bright patches</text>
<rect x="520" y="310" width="440" height="72" rx="8" fill="#12181f" stroke="#d9a441" stroke-width="1.5"/>
<text x="532" y="332" fill="#d9a441" font-size="12">class (Choice ×4: bedrock · cobble · regolith · sand)</text>
<rect x="1000" y="310" width="460" height="72" rx="8" fill="#0f1317" stroke="#5aa7e6" stroke-width="1.2"/>
<text x="1012" y="334" fill="#5aa7e6" font-size="12">with the Navcam frame</text>
<rect x="1500" y="310" width="460" height="72" rx="8" fill="#12181f" stroke="#4fd18b" stroke-width="1.5"/>
<text x="1512" y="331" fill="#4fd18b" font-size="11.5">predicted slip 5/12/20/45 % → energy &amp; time per metre [FR-14]</text>
<path d="M480,343 L520,343" stroke="#3a4450" stroke-width="1.2"/>
<path d="M960,343 L1000,343" stroke="#3a4450" stroke-width="1.2"/>
<path d="M1460,343 L1500,343" stroke="#3a4450" stroke-width="1.2"/>
<rect x="40" y="390" width="440" height="72" rx="8" fill="#0f1317" stroke="#3a4450" stroke-width="1.2"/>
<text x="52" y="412" fill="#c9d1d9" font-size="13" font-weight="600">4. Navcam frame quality</text>
<text x="52" y="428" fill="#7f8b98" font-size="11">features counted, shadowed fraction, sun, exposure</text>
<rect x="520" y="390" width="440" height="72" rx="8" fill="#12181f" stroke="#d9a441" stroke-width="1.5"/>
<text x="532" y="412" fill="#d9a441" font-size="12">usable (Noul) · cause (Choice ×5)</text>
<rect x="1000" y="390" width="460" height="72" rx="8" fill="#0f1317" stroke="#5aa7e6" stroke-width="1.2"/>
<text x="1012" y="414" fill="#5aa7e6" font-size="12">with the Navcam frame</text>
<rect x="1500" y="390" width="460" height="72" rx="8" fill="#12181f" stroke="#4fd18b" stroke-width="1.5"/>
<text x="1512" y="411" fill="#4fd18b" font-size="11.5">P(usable) &lt; 0.5 → do not plan on it; mast pan, re-image [FR-08]</text>
<path d="M480,423 L520,423" stroke="#3a4450" stroke-width="1.2"/>
<path d="M960,423 L1000,423" stroke="#3a4450" stroke-width="1.2"/>
<path d="M1460,423 L1500,423" stroke="#3a4450" stroke-width="1.2"/>
<rect x="40" y="470" width="440" height="72" rx="8" fill="#0f1317" stroke="#3a4450" stroke-width="1.2"/>
<text x="52" y="492" fill="#c9d1d9" font-size="13" font-weight="600">5. rear Hazcam pair</text>
<text x="52" y="508" fill="#7f8b98" font-size="11">features behind the rover</text>
<rect x="520" y="470" width="440" height="72" rx="8" fill="#12181f" stroke="#d9a441" stroke-width="1.5"/>
<text x="532" y="492" fill="#d9a441" font-size="12">same, mirrored</text>
<rect x="1000" y="470" width="460" height="72" rx="8" fill="#0f1317" stroke="#5aa7e6" stroke-width="1.2"/>
<text x="1012" y="494" fill="#5aa7e6" font-size="12">before any reverse</text>
<rect x="1500" y="470" width="460" height="72" rx="8" fill="#12181f" stroke="#4fd18b" stroke-width="1.5"/>
<text x="1512" y="491" fill="#4fd18b" font-size="11.5">reverse only on imaged, judged ground [FR-07]</text>
<path d="M480,503 L520,503" stroke="#3a4450" stroke-width="1.2"/>
<path d="M960,503 L1000,503" stroke="#3a4450" stroke-width="1.2"/>
<path d="M1460,503 L1500,503" stroke="#3a4450" stroke-width="1.2"/>
<rect x="40" y="550" width="440" height="72" rx="8" fill="#0f1317" stroke="#3a4450" stroke-width="1.2"/>
<text x="52" y="572" fill="#c9d1d9" font-size="13" font-weight="600">6. rover health (telemetry 1 Hz)</text>
<text x="52" y="588" fill="#7f8b98" font-size="11">SOC, battery temp, actuator currents, slip, VO, tilt,</text>
<text x="52" y="601" fill="#7f8b98" font-size="11">suspension, dust, plus which way each is trending — in words</text>
<rect x="520" y="550" width="440" height="72" rx="8" fill="#12181f" stroke="#d9a441" stroke-width="1.5"/>
<text x="532" y="572" fill="#d9a441" font-size="12">fault class (Choice ×8) · stop drive · needs ground (Noul)</text>
<rect x="1000" y="550" width="460" height="72" rx="8" fill="#0f1317" stroke="#5aa7e6" stroke-width="1.2"/>
<text x="1012" y="574" fill="#5aa7e6" font-size="12">EVERY sample, 1 Hz</text>
<rect x="1500" y="550" width="460" height="72" rx="8" fill="#12181f" stroke="#4fd18b" stroke-width="1.5"/>
<text x="1512" y="571" fill="#4fd18b" font-size="11.5">stop &gt; 0.5 → halt now; ground &gt; 0.5 → Claude anomaly action;</text>
<text x="1512" y="584" fill="#9fd9b6" font-size="11.5">class change → cancel &amp; re-issue; console shows a card only when</text>
<text x="1512" y="597" fill="#9fd9b6" font-size="11.5">the picture changes [FR-11]</text>
<path d="M480,583 L520,583" stroke="#3a4450" stroke-width="1.2"/>
<path d="M960,583 L1000,583" stroke="#3a4450" stroke-width="1.2"/>
<path d="M1460,583 L1500,583" stroke="#3a4450" stroke-width="1.2"/>
<rect x="40" y="630" width="440" height="72" rx="8" fill="#0f1317" stroke="#3a4450" stroke-width="1.2"/>
<text x="52" y="652" fill="#c9d1d9" font-size="13" font-weight="600">7. sequence review before uplink</text>
<text x="52" y="668" fill="#7f8b98" font-size="11">every planned activity: instrument, measures, purpose, order,</text>
<text x="52" y="681" fill="#7f8b98" font-size="11">arm</text>
<rect x="520" y="630" width="440" height="72" rx="8" fill="#12181f" stroke="#d9a441" stroke-width="1.5"/>
<text x="532" y="652" fill="#d9a441" font-size="12">serves · prerequisites · risk (Noul each)</text>
<rect x="1000" y="630" width="460" height="72" rx="8" fill="#0f1317" stroke="#5aa7e6" stroke-width="1.2"/>
<text x="1012" y="654" fill="#5aa7e6" font-size="12">once per sol, 1 request</text>
<rect x="1500" y="630" width="460" height="72" rx="8" fill="#12181f" stroke="#4fd18b" stroke-width="1.5"/>
<text x="1512" y="651" fill="#4fd18b" font-size="11.5">drop what fails, report to the planners; the rest is uplinked</text>
<text x="1512" y="664" fill="#9fd9b6" font-size="11.5">[FR-10]</text>
<path d="M480,663 L520,663" stroke="#3a4450" stroke-width="1.2"/>
<path d="M960,663 L1000,663" stroke="#3a4450" stroke-width="1.2"/>
<path d="M1460,663 L1500,663" stroke="#3a4450" stroke-width="1.2"/>
<rect x="40" y="710" width="440" height="72" rx="8" fill="#0f1317" stroke="#3a4450" stroke-width="1.2"/>
<text x="52" y="732" fill="#c9d1d9" font-size="13" font-weight="600">8. science stop (AEGIS-style)</text>
<text x="52" y="748" fill="#7f8b98" font-size="11">candidates in view + Claude&#x27;s Navcam read + the criteria</text>
<rect x="520" y="710" width="440" height="72" rx="8" fill="#12181f" stroke="#d9a441" stroke-width="1.5"/>
<text x="532" y="732" fill="#d9a441" font-size="12">match (Score 0–3) · instrument (Choice ×5) · arm safe (Noul)</text>
<rect x="1000" y="710" width="460" height="72" rx="8" fill="#0f1317" stroke="#5aa7e6" stroke-width="1.2"/>
<text x="1012" y="734" fill="#5aa7e6" font-size="12">each stop, 1 request</text>
<rect x="1500" y="710" width="460" height="72" rx="8" fill="#12181f" stroke="#4fd18b" stroke-width="1.5"/>
<text x="1512" y="731" fill="#4fd18b" font-size="11.5">selection rule; arm rule: 0.6 floor [FR-09]</text>
<path d="M480,743 L520,743" stroke="#3a4450" stroke-width="1.2"/>
<path d="M960,743 L1000,743" stroke="#3a4450" stroke-width="1.2"/>
<path d="M1460,743 L1500,743" stroke="#3a4450" stroke-width="1.2"/>
<rect x="40" y="790" width="440" height="72" rx="8" fill="#0f1317" stroke="#3a4450" stroke-width="1.2"/>
<text x="52" y="812" fill="#c9d1d9" font-size="13" font-weight="600">9. arm placement (each contact-science activity)</text>
<text x="52" y="828" fill="#7f8b98" font-size="11">candidate spots from the rock geometry, plus the MEASURED arm</text>
<text x="52" y="841" fill="#7f8b98" font-size="11">envelope: reach 2.05 m, turret a 0.84 m disc, instrument on its</text>
<text x="52" y="854" fill="#7f8b98" font-size="11">rim</text>
<rect x="520" y="790" width="440" height="72" rx="8" fill="#12181f" stroke="#d9a441" stroke-width="1.5"/>
<text x="532" y="812" fill="#d9a441" font-size="12">placement quality (Score 0–3) · collision risk (Noul), per</text>
<text x="532" y="826" fill="#c9b98a" font-size="12">spot</text>
<rect x="1000" y="790" width="460" height="72" rx="8" fill="#0f1317" stroke="#5aa7e6" stroke-width="1.2"/>
<text x="1012" y="814" fill="#5aa7e6" font-size="12">each arm activity, 1 request</text>
<rect x="1500" y="790" width="460" height="72" rx="8" fill="#12181f" stroke="#4fd18b" stroke-width="1.5"/>
<text x="1512" y="811" fill="#4fd18b" font-size="11.5">code checks its own collision model FIRST and refuses outright</text>
<text x="1512" y="824" fill="#9fd9b6" font-size="11.5">if any link but the instrument face enters a measured rock; jev</text>
<text x="1512" y="837" fill="#9fd9b6" font-size="11.5">then scores what is left [FR-09]</text>
<path d="M480,823 L520,823" stroke="#3a4450" stroke-width="1.2"/>
<path d="M960,823 L1000,823" stroke="#3a4450" stroke-width="1.2"/>
<path d="M1460,823 L1500,823" stroke="#3a4450" stroke-width="1.2"/>
<rect x="40" y="870" width="440" height="72" rx="8" fill="#0f1317" stroke="#3a4450" stroke-width="1.2"/>
<text x="52" y="892" fill="#c9d1d9" font-size="13" font-weight="600">10. pre-contact check (hover, 30 cm over the spot)</text>
<text x="52" y="908" fill="#7f8b98" font-size="11">workspace in words: placement-solution error, surface tilt, and</text>
<text x="52" y="921" fill="#7f8b98" font-size="11">the MEASURED clearance from the arm collision model</text>
<rect x="520" y="870" width="440" height="72" rx="8" fill="#12181f" stroke="#d9a441" stroke-width="1.5"/>
<text x="532" y="892" fill="#d9a441" font-size="12">safe to contact · good data (Noul) · next (Choice ×3)</text>
<rect x="1000" y="870" width="460" height="72" rx="8" fill="#0f1317" stroke="#5aa7e6" stroke-width="1.2"/>
<text x="1012" y="894" fill="#5aa7e6" font-size="12">each placement, 1 request</text>
<rect x="1500" y="870" width="460" height="72" rx="8" fill="#12181f" stroke="#4fd18b" stroke-width="1.5"/>
<text x="1512" y="891" fill="#4fd18b" font-size="11.5">safe ≥ 0.5 → lower to contact and measure; else the next spot</text>
<text x="1512" y="904" fill="#9fd9b6" font-size="11.5">once, or stow [FR-09]</text>
<path d="M480,903 L520,903" stroke="#3a4450" stroke-width="1.2"/>
<path d="M960,903 L1000,903" stroke="#3a4450" stroke-width="1.2"/>
<path d="M1460,903 L1500,903" stroke="#3a4450" stroke-width="1.2"/>
<rect x="40" y="950" width="440" height="72" rx="8" fill="#0f1317" stroke="#3a4450" stroke-width="1.2"/>
<text x="52" y="972" fill="#c9d1d9" font-size="13" font-weight="600">11. core decision</text>
<text x="52" y="988" fill="#7f8b98" font-size="11">target, evidence in hand, campaign goal</text>
<rect x="520" y="950" width="440" height="72" rx="8" fill="#12181f" stroke="#d9a441" stroke-width="1.5"/>
<text x="532" y="972" fill="#d9a441" font-size="12">defensible · coherent (Noul) · missing (Choice ×5)</text>
<rect x="1000" y="950" width="460" height="72" rx="8" fill="#0f1317" stroke="#5aa7e6" stroke-width="1.2"/>
<text x="1012" y="974" fill="#5aa7e6" font-size="12">before any core</text>
<rect x="1500" y="950" width="460" height="72" rx="8" fill="#12181f" stroke="#4fd18b" stroke-width="1.5"/>
<text x="1512" y="971" fill="#4fd18b" font-size="11.5">core withheld with the missing step named, else committed</text>
<text x="1512" y="984" fill="#9fd9b6" font-size="11.5">[FR-10]</text>
<path d="M480,983 L520,983" stroke="#3a4450" stroke-width="1.2"/>
<path d="M960,983 L1000,983" stroke="#3a4450" stroke-width="1.2"/>
<path d="M1460,983 L1500,983" stroke="#3a4450" stroke-width="1.2"/>
<rect x="40" y="1030" width="440" height="72" rx="8" fill="#0f1317" stroke="#3a4450" stroke-width="1.2"/>
<text x="52" y="1052" fill="#c9d1d9" font-size="13" font-weight="600">12. relay pass</text>
<text x="52" y="1068" fill="#7f8b98" font-size="11">data products: instrument, target, content, size; the hypotheses</text>
<rect x="520" y="1030" width="440" height="72" rx="8" fill="#12181f" stroke="#d9a441" stroke-width="1.5"/>
<text x="532" y="1052" fill="#d9a441" font-size="12">value if sent now (Score 0–3) per product</text>
<rect x="1000" y="1030" width="460" height="72" rx="8" fill="#0f1317" stroke="#5aa7e6" stroke-width="1.2"/>
<text x="1012" y="1054" fill="#5aa7e6" font-size="12">each pass, 1 request</text>
<rect x="1500" y="1030" width="460" height="72" rx="8" fill="#12181f" stroke="#4fd18b" stroke-width="1.5"/>
<text x="1512" y="1051" fill="#4fd18b" font-size="11.5">order by score, fill the pass minus a 40 Mb engineering reserve</text>
<text x="1512" y="1064" fill="#9fd9b6" font-size="11.5">[FR-02]</text>
<path d="M480,1063 L520,1063" stroke="#3a4450" stroke-width="1.2"/>
<path d="M960,1063 L1000,1063" stroke="#3a4450" stroke-width="1.2"/>
<path d="M1460,1063 L1500,1063" stroke="#3a4450" stroke-width="1.2"/>
<rect x="40" y="1110" width="440" height="72" rx="8" fill="#0f1317" stroke="#3a4450" stroke-width="1.2"/>
<text x="52" y="1132" fill="#c9d1d9" font-size="13" font-weight="600">13. user objective</text>
<text x="52" y="1148" fill="#7f8b98" font-size="11">requester&#x27;s text, the target, the draft activities</text>
<rect x="520" y="1110" width="440" height="72" rx="8" fill="#12181f" stroke="#d9a441" stroke-width="1.5"/>
<text x="532" y="1132" fill="#d9a441" font-size="12">serves · prerequisites · risk (Noul each)</text>
<rect x="1000" y="1110" width="460" height="72" rx="8" fill="#0f1317" stroke="#5aa7e6" stroke-width="1.2"/>
<text x="1012" y="1134" fill="#5aa7e6" font-size="12">each objective</text>
<rect x="1500" y="1110" width="460" height="72" rx="8" fill="#12181f" stroke="#4fd18b" stroke-width="1.5"/>
<text x="1512" y="1131" fill="#4fd18b" font-size="11.5">commit survivors to the swimlane; drive; execute; Claude reports</text>
<text x="1512" y="1144" fill="#9fd9b6" font-size="11.5">[FR-12]</text>
<path d="M480,1143 L520,1143" stroke="#3a4450" stroke-width="1.2"/>
<path d="M960,1143 L1000,1143" stroke="#3a4450" stroke-width="1.2"/>
<path d="M1460,1143 L1500,1143" stroke="#3a4450" stroke-width="1.2"/>
<rect x="40" y="1190" width="440" height="72" rx="8" fill="#0f1317" stroke="#b48cff" stroke-width="1.2"/>
<text x="52" y="1212" fill="#c9d1d9" font-size="13" font-weight="600">14. inside Claude&#x27;s reasoning</text>
<text x="52" y="1228" fill="#7f8b98" font-size="11">whatever the planner assembles: draft criteria, candidate order,</text>
<text x="52" y="1241" fill="#7f8b98" font-size="11">evidence</text>
<rect x="520" y="1190" width="440" height="72" rx="8" fill="#12181f" stroke="#d9a441" stroke-width="1.5"/>
<text x="532" y="1212" fill="#d9a441" font-size="12">score · order check · tie-break · self-audit (as asked)</text>
<rect x="1000" y="1190" width="460" height="72" rx="8" fill="#0f1317" stroke="#5aa7e6" stroke-width="1.2"/>
<text x="1012" y="1214" fill="#5aa7e6" font-size="12">~1 per Claude task, MCP tool</text>
<rect x="1500" y="1190" width="460" height="72" rx="8" fill="#12181f" stroke="#4fd18b" stroke-width="1.5"/>
<text x="1512" y="1211" fill="#4fd18b" font-size="11.5">evidence Claude weighs and cites; captured under its card;</text>
<text x="1512" y="1224" fill="#9fd9b6" font-size="11.5">counted in the HUD</text>
<path d="M480,1223 L520,1223" stroke="#3a4450" stroke-width="1.2"/>
<path d="M960,1223 L1000,1223" stroke="#3a4450" stroke-width="1.2"/>
<path d="M1460,1223 L1500,1223" stroke="#3a4450" stroke-width="1.2"/>
<text x="40" y="1308" fill="#aab4bf" font-size="12">Measured on the recorded run: 760 jev calls, about 2,900 typed questions, 37 whole-rig sweeps, 27 vetoes, 622 health verdicts (93 non-nominal), zero node errors. Rows 1–13 are services (200–500 ms); row 14 is an MCP tool call inside a Claude action.</text>
<text x="40" y="1326" fill="#aab4bf" font-size="12">Cost of all of it: $0.03 of jev against $1.10 for 16 Claude calls. Latency is flat against question count, which is why the whole rig can be asked at once.</text>
<text x="40" y="1344" fill="#aab4bf" font-size="12">What jev is never asked: what to do next. That is a rule, and every rule cites the flight rule it enforces.</text>
</svg>